<svg xmlns="http://www.w3.org/2000/svg" width="33.955" height="33.955" viewBox="0 0 33.955 33.955">
    <path fill="#fff" d="M16.977 0a16.977 16.977 0 1 0 16.978 16.977A16.979 16.979 0 0 0 16.977 0zm-4.933 25.665H7.909V13.226h4.135zM9.977 11.527H9.95A2.155 2.155 0 1 1 10 7.229a2.156 2.156 0 1 1-.027 4.3zm16.976 14.138h-4.134V19.01c0-1.672-.6-2.813-2.095-2.813a2.263 2.263 0 0 0-2.124 1.512 2.832 2.832 0 0 0-.136 1.009v6.947h-4.132s.054-11.273 0-12.44h4.135v1.761a4.1 4.1 0 0 1 3.726-2.053c2.72 0 4.76 1.778 4.76 5.6zm0 0"/>
</svg>
