<svg xmlns="http://www.w3.org/2000/svg" width="33.102" height="33.102" viewBox="0 0 33.102 33.102">
    <path fill="#fff" d="M16.551 0A16.551 16.551 0 1 0 33.1 16.551 16.553 16.553 0 0 0 16.551 0zm7.557 12.9q.011.244.011.491A10.735 10.735 0 0 1 13.31 24.2a10.753 10.753 0 0 1-5.823-1.7 7.726 7.726 0 0 0 .906.053 7.623 7.623 0 0 0 4.718-1.626 3.8 3.8 0 0 1-3.549-2.639 3.786 3.786 0 0 0 1.716-.065A3.8 3.8 0 0 1 8.231 14.5v-.048a3.773 3.773 0 0 0 1.721.475 3.8 3.8 0 0 1-1.176-5.075 10.786 10.786 0 0 0 7.831 3.969 3.8 3.8 0 0 1 6.474-3.464 7.62 7.62 0 0 0 2.412-.922 3.814 3.814 0 0 1-1.671 2.1 7.577 7.577 0 0 0 2.182-.6 7.72 7.72 0 0 1-1.896 1.965zm0 0"/>
</svg>
