<svg xmlns="http://www.w3.org/2000/svg" id="youtube" width="34.119" height="34.119" viewBox="0 0 34.119 34.119">
    <defs>
        <style>
            .cls-1{fill:#fff}
        </style>
    </defs>
    <path id="Tracé_203" d="M224.113 214.431l5.549-3.2-5.549-3.2zm0 0" class="cls-1" transform="translate(-209.178 -194.176)"/>
    <path id="Tracé_204" d="M17.06 0a17.06 17.06 0 1 0 17.06 17.06A17.061 17.061 0 0 0 17.06 0zm10.66 17.077a28.157 28.157 0 0 1-.439 5.128 2.671 2.671 0 0 1-1.881 1.879c-1.668.439-8.342.439-8.342.439s-6.656 0-8.342-.457a2.672 2.672 0 0 1-1.879-1.879A28.033 28.033 0 0 1 6.4 17.06a28.138 28.138 0 0 1 .439-5.128 2.726 2.726 0 0 1 1.879-1.9C10.386 9.6 17.06 9.6 17.06 9.6s6.673 0 8.342.457a2.672 2.672 0 0 1 1.879 1.879 26.72 26.72 0 0 1 .439 5.145zm0 0" class="cls-1"/>
</svg>
