<svg width="22" height="19" viewBox="0 0 22 19" fill="none" xmlns="http://www.w3.org/2000/svg">
<path d="M11.931 16.93C11.6598 17.2977 11.3103 17.6005 10.9076 17.8164C10.505 18.0323 10.0594 18.156 9.60303 18.1784C9.14669 18.2008 8.69109 18.1214 8.26924 17.9459C7.84738 17.7705 7.46985 17.5034 7.16399 17.164L1.61399 11.005C1.39897 10.7732 1.23217 10.5011 1.12327 10.2043C1.01437 9.90753 0.965562 9.59207 0.979672 9.27626C0.993782 8.96046 1.07053 8.65061 1.20546 8.36474C1.34039 8.07886 1.5308 7.82266 1.76563 7.61103C2.00045 7.3994 2.27501 7.23657 2.57333 7.13199C2.87165 7.02742 3.18778 6.9832 3.50335 7.00189C3.81891 7.02059 4.12761 7.10183 4.4115 7.2409C4.69539 7.37996 4.9488 7.57408 5.15699 7.81195L9.08399 12.17C9.11279 12.2019 9.14834 12.2271 9.18808 12.2437C9.22781 12.2602 9.27073 12.2677 9.31371 12.2656C9.3567 12.2635 9.39868 12.2518 9.43661 12.2315C9.47454 12.2111 9.50746 12.1826 9.53299 12.148L17.6 1.20195C17.9753 0.693004 18.5374 0.353979 19.1626 0.259461C19.7879 0.164943 20.425 0.322674 20.934 0.697955C21.4429 1.07324 21.782 1.63533 21.8765 2.26057C21.971 2.88582 21.8133 3.523 21.438 4.03195L11.931 16.93Z" fill="white"/>
</svg>
